<?xml version="1.0" ?><!DOCTYPE svg  PUBLIC '-//W3C//DTD SVG 1.1//EN'  'http://www.w3.org/Graphics/SVG/1.1/DTD/svg11.dtd'><svg enable-background="new 0 0 512 512" height="512px" id="Слой_1" version="1.1" viewBox="0 0 512 512" width="512px" xml:space="preserve" xmlns="http://www.w3.org/2000/svg" xmlns:xlink="http://www.w3.org/1999/xlink"><g><g><g><path clip-rule="evenodd" d="M287.367,126.27v17.863c2.598,0.154,5.178,0.329,7.74,0.523      c16.088,1.138,31.646,2.864,46.672,5.18c2.096,0.334,4.191,0.684,6.285,1.046c0.775,0.096,1.553,0.192,2.328,0.291      c5.299,0.922,9.547,3.095,12.746,6.518c1.594,1.677,2.932,3.655,4.014,5.936l31.717,64.239      c3.533,6.078,6.016,9.938,7.449,11.581l18.799,21.354c1.063,1.223,2.031,2.481,2.908,3.782      c5.441,7.876,7.555,17.147,6.344,27.814c-0.469,4.664-0.953,9.183-1.455,13.559c-0.023,0.312-0.041,0.62-0.059,0.93      c-1.043,8.835-2.168,17.079-3.375,24.729c0,23.857,0,47.715,0,71.572c-0.021,3.332-1.207,6.164-3.551,8.496      c-2.125,2.14-4.646,3.303-7.564,3.491h-28.691c-2.916-0.188-5.416-1.352-7.506-3.491c-2.313-2.262-3.514-4.996-3.607-8.205      v-23.45c-40.91,2.807-81.881,4.202-122.909,4.191c-31.013,0.007-61.993-0.789-92.938-2.387c-2.56-0.13-5.12-0.264-7.682-0.407      c-7.45-0.423-14.899-0.889-22.347-1.397v23.45c-0.075,3.209-1.259,5.943-3.55,8.205c-2.108,2.14-4.631,3.303-7.565,3.491h-28.69      c-2.938-0.188-5.48-1.352-7.624-3.491c-2.326-2.332-3.489-5.164-3.492-8.496c0-23.857,0-47.715,0-71.572      c-1.208-7.65-2.333-15.895-3.375-24.729c-0.02-0.31-0.039-0.618-0.059-0.93c-0.502-4.376-0.988-8.895-1.455-13.559      c-1.211-10.667,0.902-19.938,6.344-27.814c0.875-1.301,1.845-2.56,2.91-3.782l18.797-21.354      c1.452-1.644,3.954-5.503,7.508-11.581l31.716-64.239c1.063-2.28,2.383-4.259,3.957-5.936c3.197-3.423,7.445-5.596,12.744-6.518      c0.756-0.099,1.514-0.195,2.271-0.291c2.111-0.362,4.226-0.712,6.344-1.046c15.026-2.315,30.584-4.042,46.672-5.18      c2.58-0.194,5.18-0.369,7.798-0.523V126.27c-0.023-1.31,0.074-2.571,0.291-3.782c0.704-3.76,2.488-7.076,5.354-9.951      c3.815-3.803,8.413-5.704,13.793-5.702c0.214,0,0.428,0,0.64,0c0.333,0.015,0.663,0.034,0.989,0.058h8.787      c0.517-0.039,1.04-0.059,1.572-0.058c0.097,0,0.193,0,0.291,0c0.077,0,0.154,0,0.232,0c0.551-0.001,1.094,0.019,1.629,0.058      h8.73c0.324-0.023,0.654-0.043,0.988-0.058c0.211,0,0.426,0,0.639,0c5.361-0.002,9.939,1.899,13.734,5.702      c2.865,2.875,4.65,6.191,5.354,9.951C287.217,123.698,287.354,124.96,287.367,126.27z M266.998,130.4      c-0.004-3.079-1.109-5.718-3.316-7.913c-2.217-2.209-4.895-3.314-8.03-3.318c-3.119,0.004-5.776,1.109-7.974,3.318      c-2.207,2.195-3.313,4.834-3.316,7.913c0.003,3.077,1.109,5.715,3.316,7.913c2.197,2.207,4.854,3.312,7.974,3.316      c3.135-0.005,5.813-1.109,8.03-3.316C265.889,136.115,266.994,133.478,266.998,130.4z M236.563,163.51      c-0.369,0.017-0.737,0.036-1.105,0.058l-14.432,0.582c-1.061,0.101-2.107,0.198-3.144,0.291      c-11.121,0.675-22.022,1.606-32.705,2.793c-3.496,0.42-6.969,0.865-10.417,1.338c-0.292,0.021-0.583,0.04-0.873,0.059      c-2,0.306-3.804,0.849-5.412,1.63c-3.305,1.494-5.826,3.938-7.565,7.331l-18.855,40.092c5.588-0.294,11.175-0.565,16.761-0.814      c32.304-1.428,64.563-2.164,96.778-2.212c32.194,0.048,64.436,0.784,96.719,2.212c5.586,0.249,11.174,0.521,16.762,0.814      l-18.914-40.092c-1.701-3.393-4.184-5.837-7.449-7.331c-1.627-0.781-3.451-1.324-5.469-1.63      c-0.273-0.019-0.547-0.038-0.816-0.059c-3.43-0.473-6.881-0.918-10.359-1.338c-10.721-1.187-21.662-2.118-32.82-2.793      c-1.02-0.093-2.047-0.19-3.086-0.291l-14.432-0.582c-0.369-0.021-0.736-0.041-1.105-0.058c-0.195-0.022-0.387-0.042-0.582-0.06      c-5.896-0.158-12.047-0.274-18.448-0.349c-6.422,0.074-12.591,0.19-18.506,0.349      C236.913,163.468,236.737,163.487,236.563,163.51z M190.88,295.132c17.901,17.913,39.473,26.876,64.713,26.883      c0.446,0,0.892,0,1.338,0h0.059c24.641-0.312,45.766-9.271,63.375-26.883c2.83-2.837,5.428-5.765,7.797-8.787H183.024      C185.411,289.367,188.03,292.295,190.88,295.132z M137.865,269.645c-3.922-3.95-8.675-5.93-14.258-5.935      c-5.623,0.005-10.414,1.984-14.374,5.935c-3.953,3.921-5.931,8.672-5.937,14.257c0.006,5.621,1.983,10.412,5.937,14.372      c3.96,3.952,8.751,5.93,14.374,5.937c5.583-0.007,10.336-1.984,14.258-5.937c3.971-3.96,5.97-8.751,5.994-14.372      C143.834,278.316,141.835,273.565,137.865,269.645z M373.439,269.645c-3.973,3.921-5.971,8.672-5.996,14.257      c0.025,5.621,2.023,10.412,5.996,14.372c3.92,3.952,8.672,5.93,14.258,5.937c5.621-0.007,10.412-1.984,14.373-5.937      c3.951-3.96,5.928-8.751,5.936-14.372c-0.008-5.585-1.984-10.336-5.936-14.257c-3.961-3.95-8.752-5.93-14.373-5.935      C382.111,263.715,377.359,265.694,373.439,269.645z" fill="#FFFFFF" fill-rule="evenodd"/></g><g><path clip-rule="evenodd" d="M255.652,62.553h0.115c23.575,0.006,43.77,8.403,60.581,25.195      c5.734,5.743,10.486,11.891,14.258,18.447l-12.918,7.273c-3.123-5.409-7.061-10.49-11.814-15.246      c-13.951-13.947-30.709-20.911-50.28-20.89h-0.059c-0.286-0.002-0.577-0.022-0.873-0.058c-0.243,0.031-0.477,0.05-0.698,0.058      c-18.954,0.333-35.229,7.277-48.825,20.833c-4.746,4.771-8.664,9.871-11.755,15.304l-12.921-7.333      c3.765-6.524,8.518-12.653,14.258-18.387c16.342-16.32,35.895-24.699,58.661-25.137      C254.137,62.533,254.895,62.514,255.652,62.553z" fill="#FFFFFF" fill-rule="evenodd"/></g><g><path clip-rule="evenodd" d="M345.098,97.988c-4.52-7.815-10.201-15.147-17.051-21.994      c-20.057-20.063-44.229-30.091-72.512-30.084c-0.524,0-1.048,0-1.571,0h-0.115c-27.577,0.364-51.224,10.392-70.94,30.084      c-6.835,6.836-12.498,14.148-16.993,21.937l-12.919-7.332c5.137-8.884,11.616-17.225,19.437-25.021      c22.589-22.597,49.688-34.1,81.299-34.506h0.058c0.563,0,1.125,0,1.688,0c32.388,0.017,60.07,11.519,83.044,34.506      c7.832,7.851,14.328,16.25,19.496,25.196L345.098,97.988z" fill="#FFFFFF" fill-rule="evenodd"/></g><g><path clip-rule="evenodd" d="M51.911,434.144c3.395-3.362,7.469-5.03,12.221-5.003h382.749      c4.75-0.027,8.824,1.641,12.221,5.003c3.402,3.416,5.109,7.508,5.121,12.278v0.06c-0.012,4.769-1.719,8.862-5.121,12.276      c-3.396,3.363-7.471,5.032-12.221,5.005H64.132c-4.752,0.027-8.826-1.642-12.221-5.005c-3.404-3.414-5.11-7.508-5.122-12.276      v-0.06C46.8,441.651,48.506,437.56,51.911,434.144z" fill="#FFFFFF" fill-rule="evenodd"/></g></g></g></svg>